
<svg width="48" height="48" viewBox="0 0 48 48" fill="none" xmlns="http://www.w3.org/2000/svg">
  <rect width="48" height="48" rx="24" fill="#201bbf" fill-opacity="0.1"/>
  <path d="M32 18C33.1 18 34 17.1 34 16C34 14.9 33.1 14 32 14C30.9 14 30 14.9 30 16C30 17.1 30.9 18 32 18ZM32 20C30.9 20 30 20.9 30 22C30 23.1 30.9 24 32 24C33.1 24 34 23.1 34 22C34 20.9 33.1 20 32 20ZM32 26C30.9 26 30 26.9 30 28C30 29.1 30.9 30 32 30C33.1 30 34 29.1 34 28C34 26.9 33.1 26 32 26ZM28 18H16C14.9 18 14 17.1 14 16C14 14.9 14.9 14 16 14H28C29.1 14 30 14.9 30 16C30 17.1 29.1 18 28 18ZM28 24H16C14.9 24 14 23.1 14 22C14 20.9 14.9 20 16 20H28C29.1 20 30 20.9 30 22C30 23.1 29.1 24 28 24ZM28 30H16C14.9 30 14 29.1 14 28C14 26.9 14.9 26 16 26H28C29.1 26 30 26.9 30 28C30 29.1 29.1 30 28 30Z" fill="#201bbf"/>
</svg>
