
<svg width="64" height="64" viewBox="0 0 64 64" fill="none" xmlns="http://www.w3.org/2000/svg">
  <path d="M56 48H8V16C8 14.9 7.1 14 6 14C4.9 14 4 14.9 4 16V50C4 51.1 4.9 52 6 52H56C57.1 52 58 51.1 58 50C58 48.9 57.1 48 56 48ZM22 38C23.1 38 24 37.1 24 36V28C24 26.9 23.1 26 22 26C20.9 26 20 26.9 20 28V36C20 37.1 20.9 38 22 38ZM34 38C35.1 38 36 37.1 36 36V28C36 26.9 35.1 26 34 26C32.9 26 32 26.9 32 28V36C32 37.1 32.9 38 34 38ZM46 38C47.1 38 48 37.1 48 36V20C48 18.9 47.1 18 46 18C44.9 18 44 18.9 44 20V36C44 37.1 44.9 38 46 38Z" fill="white"/>
</svg>
